<?xml version="1.0" encoding="UTF-8" standalone="no"?>
<svg
   xmlns:dc="http://purl.org/dc/elements/1.1/"
   xmlns:cc="http://creativecommons.org/ns#"
   xmlns:rdf="http://www.w3.org/1999/02/22-rdf-syntax-ns#"
   xmlns:svg="http://www.w3.org/2000/svg"
   xmlns="http://www.w3.org/2000/svg"
   xmlns:sodipodi="http://sodipodi.sourceforge.net/DTD/sodipodi-0.dtd"
   xmlns:inkscape="http://www.inkscape.org/namespaces/inkscape"
   version="1.1"
   x="0px"
   y="0px"
   viewBox="0 0 79.012 112.5"
   style="enable-background:new 0 0 79.012 90;"
   xml:space="preserve"
   id="svg2"
   inkscape:version="0.91 r13725"
   sodipodi:docname="noun_221422_cc.svg"><metadata
     id="metadata24"><rdf:RDF><cc:Work
         rdf:about=""><dc:format>image/svg+xml</dc:format><dc:type
           rdf:resource="http://purl.org/dc/dcmitype/StillImage" /></cc:Work></rdf:RDF></metadata><defs
     id="defs22" /><sodipodi:namedview
     pagecolor="#ffffff"
     bordercolor="#666666"
     borderopacity="1"
     objecttolerance="10"
     gridtolerance="10"
     guidetolerance="10"
     inkscape:pageopacity="0"
     inkscape:pageshadow="2"
     inkscape:window-width="640"
     inkscape:window-height="480"
     id="namedview20"
     showgrid="false"
     inkscape:zoom="2.0977778"
     inkscape:cx="39.506001"
     inkscape:cy="56.25"
     inkscape:window-x="0"
     inkscape:window-y="0"
     inkscape:window-maximized="0"
     inkscape:current-layer="svg2" /><g
     id="g4"><g
       id="g6"><path
         d="M23.084,42.972c8.443-0.347,13.771-8.137,13.996-8.47c0.33-0.494,0.4-1.118,0.184-1.673    c-0.213-0.555-0.686-0.969-1.262-1.111c-0.295-0.071-7.299-1.772-12.943-1.772l-0.238,0.001    c-6.727,0.057-12.072,2.146-12.297,2.234c-0.541,0.215-0.949,0.677-1.092,1.244c-0.146,0.567-0.008,1.168,0.367,1.616    c0.678,0.812,6.811,7.937,12.957,7.937L23.084,42.972z M11.195,33.875c0,0,5.176-2.051,11.639-2.106    c0.074,0,0.15-0.002,0.225-0.002c5.488,0,12.51,1.721,12.51,1.721s-4.941,7.354-12.561,7.667    c-0.084,0.004-0.166,0.005-0.252,0.005C17.285,41.159,11.195,33.875,11.195,33.875z"
         id="path8" /><path
         d="M58.063,52.758c-0.357,0-0.715,0.104-1.025,0.316c-0.102,0.068-10.477,7.066-18.809,7.066    c-8.313,0-18.711-6.998-18.814-7.068c-0.309-0.211-0.668-0.314-1.023-0.314c-0.406,0-0.814,0.137-1.145,0.406    c-0.625,0.505-0.844,1.359-0.541,2.104C17.004,56,24.211,73.221,38.229,73.221c14.014,0,21.219-17.221,21.518-17.953    c0.303-0.745,0.086-1.6-0.539-2.105C58.875,52.895,58.467,52.758,58.063,52.758z M38.229,71.4    c-12.959,0-19.838-16.823-19.838-16.823s10.85,7.384,19.838,7.384c8.99,0,19.834-7.384,19.834-7.384S51.182,71.4,38.229,71.4z"
         id="path10" /><path
         d="M68.67,32.182c-0.225-0.089-5.57-2.177-12.293-2.234l-0.242-0.001c-5.645,0.001-12.648,1.701-12.943,1.772    c-0.576,0.142-1.049,0.556-1.264,1.111c-0.217,0.555-0.145,1.179,0.186,1.673c0.225,0.333,5.553,8.123,13.996,8.47l0.328,0.007    c6.143,0,12.279-7.125,12.957-7.937c0.373-0.448,0.512-1.049,0.367-1.616C69.619,32.859,69.211,32.397,68.67,32.182z     M56.438,41.159c-0.086,0-0.168-0.001-0.254-0.005c-7.617-0.313-12.559-7.667-12.559-7.667s7.021-1.719,12.51-1.721    c0.074,0,0.148,0.002,0.225,0.002c6.463,0.055,11.639,2.106,11.639,2.106S61.908,41.159,56.438,41.159z"
         id="path12" /><path
         d="M39.59,0C7.316,0,0,10.125,0,14.106C0,84.002,33.76,90,39.508,90c5.738,0,39.504-6.502,39.504-75.894    C79.012,10.317,71.863,0,39.59,0z M39.508,88.18c-0.377,0-37.688-0.848-37.688-74.073c0-2.595,6.41-12.286,37.77-12.286    c31.221,0,37.602,9.691,37.602,12.286C77.191,87.332,39.885,88.18,39.508,88.18z"
         id="path14" /></g></g></svg>