<svg id="Layer_1" data-name="Layer 1" xmlns="http://www.w3.org/2000/svg" viewBox="0 0 68 88.01"><title>lock-combined</title><path d="M57.11,41.91V32.39a23.11,23.11,0,0,0-46.23,0v9.51H0V88H68V41.91ZM13.57,32.39a20.42,20.42,0,0,1,40.85,0v9.51H13.57ZM65.31,85.33H2.69V44.59H65.31V85.33Z"/><path d="M27.09,75.61l1.33,1.55H39.58l1.33-1.55L39.15,64.28a6.93,6.93,0,1,0-10.3,0ZM34,55.44a4.22,4.22,0,0,1,2.83,7.37L36.39,64,38,74.47H30L31.61,64l-.43-1.22A4.23,4.23,0,0,1,34,55.44Z"/><path d="M12.82,41.68H0V88H68V41.68H16.14L11.4,31.58A20.15,20.15,0,0,1,47.91,14.52l4.81,10.22,2.72-1.28L50.68,13.33h0a23.16,23.16,0,0,0-42.21,19h0ZM65,85H3V44.68H65Z"/><path d="M27,75.45l1.48,1.73H39.55L41,75.45,39.3,64.22a7.05,7.05,0,1,0-10.6,0Zm7-19.93a4.06,4.06,0,0,1,4.06,4.06,4,4,0,0,1-1.35,3l-.48,1.35,1.59,10.24H30.19L31.78,64,31.3,62.6A4.06,4.06,0,0,1,34,55.51Z"/></svg>