<?xml version="1.0" encoding="utf-8"?>
<!-- Generator: Adobe Illustrator 21.0.2, SVG Export Plug-In . SVG Version: 6.00 Build 0)  -->
<svg version="1.1" id="Layer_1" xmlns="http://www.w3.org/2000/svg" xmlns:xlink="http://www.w3.org/1999/xlink" x="0px" y="0px"
	 viewBox="0 0 68 88" style="enable-background:new 0 0 68 88;" xml:space="preserve">
<g>
	<path d="M12.8,41.7H0V88h68V41.7H16.1l0,0l-4.7-10.1c-4.6-10-0.3-21.9,9.7-26.6C26,2.6,31.5,2.4,36.6,4.2c5,1.8,9.1,5.5,11.4,10.3
		l4.8,10.2l2.7-1.3l-4.8-10.1l0,0C48,7.7,43.4,3.5,37.6,1.4c-5.8-2.1-12.1-1.8-17.7,0.8C8.5,7.5,3.5,20.9,8.5,32.4l0,0L12.8,41.7z
		 M65,85H3V44.7h62V85z"/>
	<path d="M27,75.4l1.5,1.7h11.1l1.5-1.7l-1.7-11.2c1.1-1.3,1.8-2.9,1.8-4.7c0-3.9-3.2-7.1-7.1-7.1s-7.1,3.2-7.1,7.1
		c0,1.7,0.6,3.4,1.8,4.7L27,75.4z M34,55.5c2.2,0,4.1,1.8,4.1,4.1c0,1.2-0.5,2.2-1.4,3l-0.5,1.3l1.6,10.2h-7.6L31.8,64l-0.5-1.4
		c-0.9-0.8-1.4-1.9-1.4-3C29.9,57.3,31.8,55.5,34,55.5z"/>
</g>
</svg>
