<?xml version="1.0" encoding="utf-8"?>
<!-- Generator: Adobe Illustrator 21.0.2, SVG Export Plug-In . SVG Version: 6.00 Build 0)  -->
<svg version="1.1" id="Layer_1" xmlns="http://www.w3.org/2000/svg" xmlns:xlink="http://www.w3.org/1999/xlink" x="0px" y="0px"
	 viewBox="0 0 75.9 88" style="enable-background:new 0 0 75.9 88;" xml:space="preserve">
<g>
	<path d="M63.7,36.4V25.8C63.7,11.6,52.1,0,37.9,0C23.7,0,12.1,11.6,12.1,25.8v10.6H0V88h75.9V36.4H63.7z M15.1,25.8
		C15.1,13.2,25.4,3,37.9,3s22.8,10.2,22.8,22.8v10.6H15.1V25.8z M72.9,85H3V39.4h69.9L72.9,85L72.9,85z"/>
	<path d="M30.2,74.1l1.5,1.7h12.5l1.5-1.7l-2-12.7c1.3-1.4,2-3.2,2-5.2c0-4.3-3.5-7.7-7.7-7.7c-4.3,0-7.7,3.5-7.7,7.7
		c0,1.9,0.7,3.8,2,5.2L30.2,74.1z M37.9,51.6c2.6,0,4.7,2.1,4.7,4.7c0,1.3-0.6,2.6-1.6,3.5l-0.5,1.3l1.8,11.7h-9l1.8-11.7l-0.5-1.4
		c-1-0.9-1.6-2.2-1.6-3.5C33.2,53.7,35.3,51.6,37.9,51.6z"/>
</g>
</svg>
