<?xml version="1.0" encoding="utf-8"?>
<!-- Generator: Adobe Illustrator 21.0.2, SVG Export Plug-In . SVG Version: 6.00 Build 0)  -->
<svg version="1.1" id="Layer_1" xmlns="http://www.w3.org/2000/svg" xmlns:xlink="http://www.w3.org/1999/xlink" x="0px" y="0px"
	 viewBox="0 0 79.9 80" style="enable-background:new 0 0 79.9 80;" xml:space="preserve">
<g>
	<path d="M78.4,13.6L66.3,1.5c-1-1-2.3-1.5-3.7-1.5c-1.4,0-2.7,0.5-3.7,1.5l-8,8L70.4,29l8-8C80.4,19,80.4,15.7,78.4,13.6z M76.3,19
		l-6,6L54.9,9.5l6-6c0.9-0.9,2.5-0.9,3.4,0l12.1,12.1C77.3,16.6,77.3,18.1,76.3,19z"/>
	<path d="M45,15.4L1.8,58.6c-0.7,0.7-1.1,1.6-1.1,2.6L0,77.2c0,0.8,0.2,1.5,0.8,2C1.3,79.7,2,80,2.7,80h0.1l16-0.7
		c1,0,1.9-0.5,2.6-1.1L64.6,35L45,15.4z M52.6,27L11.8,67.9l-7.6-7.6L45,19.5L52.6,27z M3.4,63.6l12.9,12.9L2.8,77.1L3.4,63.6z
		 M19.6,75.7l-5.8-5.8l40.8-40.8l5.8,5.8L19.6,75.7z"/>
</g>
</svg>
