<?xml version="1.0" encoding="utf-8"?>
<!-- Generator: Adobe Illustrator 21.0.2, SVG Export Plug-In . SVG Version: 6.00 Build 0)  -->
<svg version="1.1" id="Layer_1" xmlns="http://www.w3.org/2000/svg" xmlns:xlink="http://www.w3.org/1999/xlink" x="0px" y="0px"
	 viewBox="0 0 100 100" style="enable-background:new 0 0 100 100;" xml:space="preserve">
<style type="text/css">
	.st0{fill:#FFFFFF;}
</style>
<path class="st0" d="M55.1,55.1c-2.8,2.8-7.3,2.8-10.1,0c-2.8-2.8-8-12.1-17.2-27.3C43,36.9,52.2,42.2,55.1,44.9
	C57.9,47.8,57.9,52.3,55.1,55.1z M50,100C22.3,100,0,77.7,0,50c0-13.8,5.6-26.3,14.7-35.3l4.1,4.1c-8,8-13,19.1-13,31.4
	c0,24.4,19.9,44.3,44.3,44.3s44.3-19.9,44.3-44.3C94.4,26.7,76.2,7.4,53,5.9v14.2h-5.7V0H53v0.1c26.2,1.5,47,23.2,47,49.9
	C100,77.7,77.7,100,50,100z"/>
</svg>
