<?xml version="1.0" encoding="UTF-8" standalone="no"?>
<svg
   xmlns:dc="http://purl.org/dc/elements/1.1/"
   xmlns:cc="http://creativecommons.org/ns#"
   xmlns:rdf="http://www.w3.org/1999/02/22-rdf-syntax-ns#"
   xmlns:svg="http://www.w3.org/2000/svg"
   xmlns="http://www.w3.org/2000/svg"
   xmlns:sodipodi="http://sodipodi.sourceforge.net/DTD/sodipodi-0.dtd"
   xmlns:inkscape="http://www.inkscape.org/namespaces/inkscape"
   version="1.1"
   x="0px"
   y="0px"
   viewBox="0 0 79.012 112.5"
   style="enable-background:new 0 0 79.012 90;"
   xml:space="preserve"
   id="svg2"
   inkscape:version="0.91 r13725"
   sodipodi:docname="noun_221416_cc.svg"><metadata
     id="metadata24"><rdf:RDF><cc:Work
         rdf:about=""><dc:format>image/svg+xml</dc:format><dc:type
           rdf:resource="http://purl.org/dc/dcmitype/StillImage" /></cc:Work></rdf:RDF></metadata><defs
     id="defs22" /><sodipodi:namedview
     pagecolor="#ffffff"
     bordercolor="#666666"
     borderopacity="1"
     objecttolerance="10"
     gridtolerance="10"
     guidetolerance="10"
     inkscape:pageopacity="0"
     inkscape:pageshadow="2"
     inkscape:window-width="890"
     inkscape:window-height="636"
     id="namedview20"
     showgrid="false"
     inkscape:zoom="2.0977778"
     inkscape:cx="39.506001"
     inkscape:cy="56.25"
     inkscape:window-x="0"
     inkscape:window-y="0"
     inkscape:window-maximized="0"
     inkscape:current-layer="svg2" /><g
     id="g4"><g
       id="g6"><path
         d="M39.59,0C7.316,0,0,10.125,0,14.106C0,84.002,33.76,90,39.508,90c5.738,0,39.504-6.502,39.504-75.894    C79.012,10.317,71.861,0,39.59,0z M39.508,88.18c-0.377,0-37.688-0.848-37.688-74.073c0-2.595,6.41-12.286,37.77-12.286    c31.221,0,37.602,9.691,37.602,12.286C77.191,87.332,39.885,88.18,39.508,88.18z"
         id="path8" /><path
         d="M25.828,40.494c8.535-2.844,11.141-14.147,11.248-14.627c0.127-0.572-0.029-1.169-0.42-1.607    c-0.348-0.389-0.842-0.608-1.357-0.608c-0.064,0-0.129,0.003-0.191,0.011c-0.324,0.034-7.93,0.857-13.631,2.522    c-6.736,1.966-11.658,5.061-11.863,5.19c-0.49,0.312-0.803,0.835-0.842,1.414c-0.041,0.576,0.197,1.139,0.639,1.513    c0.316,0.268,7.828,6.575,13.939,6.575C24.234,40.876,25.066,40.748,25.828,40.494z M21.984,27.932    c5.613-1.639,13.314-2.46,13.314-2.46S32.91,36.215,25.252,38.768c-0.598,0.199-1.236,0.288-1.902,0.288    c-5.514,0-12.762-6.144-12.762-6.144S15.418,29.848,21.984,27.932z"
         id="path10" /><path
         d="M69.58,31.375c-0.207-0.129-5.127-3.224-11.859-5.19c-5.707-1.666-13.311-2.489-13.635-2.522    c-0.063-0.007-0.127-0.011-0.191-0.011c-0.516,0-1.01,0.219-1.357,0.608c-0.393,0.438-0.549,1.035-0.42,1.607    c0.107,0.48,2.713,11.783,11.248,14.627c0.762,0.254,1.592,0.382,2.479,0.382c6.111,0,13.623-6.307,13.939-6.575    c0.439-0.374,0.678-0.937,0.639-1.513C70.383,32.21,70.07,31.687,69.58,31.375z M55.844,39.056c-0.666,0-1.305-0.089-1.902-0.288    c-7.658-2.553-10.047-13.296-10.047-13.296s7.701,0.821,13.314,2.46c6.566,1.916,11.396,4.98,11.396,4.98    S61.357,39.056,55.844,39.056z"
         id="path12" /><path
         d="M38.221,52.758c-14.014,0-21.221,17.221-21.52,17.953c-0.301,0.744-0.084,1.6,0.541,2.104    c0.33,0.269,0.74,0.406,1.145,0.406c0.355,0,0.715-0.105,1.023-0.316c0.104-0.07,10.477-7.068,18.811-7.068    c8.313,0,18.711,6.998,18.813,7.069c0.311,0.21,0.67,0.315,1.025,0.315c0.404,0,0.813-0.138,1.145-0.408    c0.625-0.504,0.842-1.359,0.539-2.102C59.445,69.979,52.238,52.758,38.221,52.758z M38.221,64.016    c-8.99,0-19.834,7.385-19.834,7.385s6.879-16.823,19.834-16.823c12.959,0,19.838,16.823,19.838,16.823    S47.207,64.016,38.221,64.016z"
         id="path14" /></g></g></svg>