<?xml version="1.0" encoding="utf-8"?>
<!-- Generator: Adobe Illustrator 21.0.2, SVG Export Plug-In . SVG Version: 6.00 Build 0)  -->
<svg version="1.1" id="Layer_1" xmlns="http://www.w3.org/2000/svg" xmlns:xlink="http://www.w3.org/1999/xlink" x="0px" y="0px"
	 viewBox="0 0 45.5 55.8" style="enable-background:new 0 0 45.5 55.8;" xml:space="preserve">
<g>
	<path d="M41.5,6.7H30.2C29.8,2.9,26.6,0,22.7,0s-7.1,2.9-7.5,6.7H3.9C1.7,6.7,0,8.5,0,10.8v1.3c0,2,1.3,3.6,3.1,4v35.3
		c0,2.3,1.8,4.1,4.1,4.1h31.1c2.3,0,4.1-1.8,4.1-4.1V16.2c1.8-0.4,3.1-2.1,3.1-4v-1.4C45.4,8.5,43.7,6.7,41.5,6.7z M22.7,1.7
		c2.9,0,5.4,2.2,5.8,5H16.9C17.3,3.9,19.8,1.7,22.7,1.7z M40.7,51.5c0,1.3-1.1,2.4-2.4,2.4H7.2c-1.3,0-2.4-1.1-2.4-2.4V16.3h35.9
		V51.5z M43.8,12.1c0,1.3-1,2.4-2.2,2.4l0,0H3.9l0,0c-1.2,0-2.2-1.1-2.2-2.4v-1.3c0-1.3,1-2.4,2.2-2.4h37.7c1.2,0,2.2,1.1,2.2,2.4
		V12.1z"/>
	<path d="M12,50c0.5,0,0.8-0.4,0.8-0.8V21.1c0-0.5-0.4-0.8-0.8-0.8c-0.5,0-0.8,0.4-0.8,0.8v28.1C11.2,49.6,11.5,50,12,50z"/>
	<path d="M22.7,50c0.5,0,0.8-0.4,0.8-0.8V21.1c0-0.5-0.4-0.8-0.8-0.8s-0.8,0.4-0.8,0.8v28.1C21.9,49.6,22.2,50,22.7,50z"/>
	<path d="M33.4,50c0.5,0,0.8-0.4,0.8-0.8V21.1c0-0.5-0.4-0.8-0.8-0.8c-0.4,0-0.8,0.4-0.8,0.8v28.1C32.6,49.6,32.9,50,33.4,50z"/>
</g>
</svg>
