<?xml version="1.0" encoding="utf-8"?>
<!-- Generator: Adobe Illustrator 21.0.2, SVG Export Plug-In . SVG Version: 6.00 Build 0)  -->
<svg version="1.1" id="Layer_1" xmlns="http://www.w3.org/2000/svg" xmlns:xlink="http://www.w3.org/1999/xlink" x="0px" y="0px"
	 viewBox="0 0 59 45.4" style="enable-background:new 0 0 59 45.4;" xml:space="preserve">
<style type="text/css">
	.st0{display:none;}
</style>
<rect x="-490.5" y="-178.3" class="st0" width="802" height="805"/>
<path d="M41.1,3.7c-0.5,0.5-0.7,1.3-0.5,2C40.2,5.8,40,5.9,39.7,6l-10.3,4.3c0,0-0.1,0-0.1-0.1L19,6.5c-0.2-0.1-0.4-0.2-0.6-0.2
	c0.3-0.7,0.1-1.6-0.5-2.2l-3.1-3.1c-0.8-0.8-2.1-0.8-2.9,0L0.6,12.4c-0.8,0.8-0.8,2.1,0,2.9l3.1,3.1C4.1,18.8,4.6,19,5.2,19
	c0.3,0,0.5-0.1,0.8-0.2C5.8,21,6.2,23.1,7.1,25l0.2,0.4c-0.5,0.6-0.8,1.3-0.8,2.1c0,0.9,0.4,1.8,1,2.4c0.6,0.6,1.5,1,2.4,1l-0.4,0.4
	c-0.6,0.6-1,1.5-1,2.4s0.4,1.8,1,2.4c0.6,0.6,1.5,1,2.4,1c0.3,0,0.6,0,0.8-0.1c-0.3,1.1,0,2.3,0.9,3.2c0.6,0.6,1.5,1,2.4,1
	c0.8,0,1.5-0.3,2.1-0.8c0,0,0,0,0,0c0,1.9,1.5,3.4,3.4,3.4c0.6,0,1.1-0.2,1.6-0.4l0.9,0.9c0.6,0.6,1.5,1,2.3,1c0,0,0,0,0,0
	c0.9,0,1.7-0.3,2.3-1c0.6-0.6,1-1.4,1-2.3l0.7,0.7c1.3,1.3,3.3,1.4,4.6,0.3c0.7-0.6,1.1-1.5,1.2-2.5l0.2,0.2
	c1.3,1.3,3.3,1.4,4.6,0.3c0.7-0.6,1.1-1.5,1.1-2.5c0,0,0,0,0,0c1.1,0.8,2.6,0.8,3.7,0.1c1-0.6,1.5-1.7,1.5-2.8c0-0.9-0.4-1.7-1-2.3
	l-0.6-0.6c2.5-2.6,4.7-5.7,6-8.4c0.9-2,1.3-4.1,1.1-6.2c0.3,0.2,0.7,0.3,1.1,0.3c0.5,0,1.1-0.2,1.4-0.6l3.1-3.1
	c0.8-0.8,0.8-2.1,0-2.9L47.1,0.6c-0.8-0.8-2.1-0.8-2.9,0L41.1,3.7z M4.4,17.7l-3.1-3.1c-0.4-0.4-0.4-1.1,0-1.5L12.6,1.8
	c0.2-0.2,0.5-0.3,0.7-0.3c0.3,0,0.5,0.1,0.7,0.3l3.1,3.1c0.4,0.4,0.4,1.1,0,1.5L5.9,17.7C5.5,18.1,4.8,18.1,4.4,17.7z M8.2,29.2
	c-0.5-0.5-0.7-1.1-0.7-1.7s0.2-1.2,0.7-1.7L9,25.1c0.5-0.5,1.1-0.7,1.7-0.7s1.2,0.2,1.7,0.7c0.9,0.9,0.9,2.5,0,3.4l-0.6,0.6
	c0,0,0,0-0.1,0.1l-0.1,0.1C10.6,30.1,9.1,30.1,8.2,29.2z M10.2,35.5c-0.5-0.5-0.7-1.1-0.7-1.7s0.2-1.2,0.7-1.7l2.1-2.1
	c0,0,0,0,0.1-0.1l0.1-0.1c0.4-0.4,1-0.6,1.6-0.6c0.6,0,1.2,0.2,1.7,0.7s0.7,1.1,0.7,1.7s-0.2,1.2-0.7,1.7l-2.2,2.2
	C12.7,36.4,11.1,36.4,10.2,35.5z M17.7,39.6c-0.9,0.9-2.5,0.9-3.4,0c-0.9-0.9-0.9-2.5,0-3.4l1.7-1.7c0.5-0.5,1.1-0.7,1.7-0.7
	c0.6,0,1.2,0.2,1.7,0.7c0.9,0.9,0.9,2.5,0,3.4L19.3,38c-0.1,0.1-0.2,0.2-0.3,0.3L17.7,39.6z M19.1,40.5c0-0.6,0.2-1.1,0.6-1.5
	l0.3-0.3c0.4-0.4,1-0.6,1.5-0.6c1.3,0,2.4,1.1,2.4,2.4s-1.1,2.4-2.4,2.4C20.2,42.9,19.1,41.8,19.1,40.5z M45.1,37.8
	c-0.9,0.6-2.1,0.4-3-0.4L41,36.2c0,0,0,0-0.1,0l-5-5c-0.2-0.2-0.5-0.2-0.7,0s-0.2,0.5,0,0.7l5,5c0,0,0,0,0,0c0.4,0.4,0.6,1,0.6,1.6
	c0,0.7-0.3,1.3-0.8,1.8C39.3,41,37.8,41,36.9,40l-1.9-1.9c0,0-0.1-0.1-0.1-0.1c0-0.1-0.1-0.1-0.1-0.2l-3.5-3.5
	c-0.2-0.2-0.5-0.2-0.7,0s-0.2,0.5,0,0.7l3.5,3.5c0,0,0.1,0.1,0.1,0.1c0,0.1,0.1,0.1,0.1,0.2l0,0c0.4,0.4,0.7,1,0.7,1.6
	c0,0.7-0.3,1.3-0.8,1.8c-0.9,0.8-2.3,0.7-3.2-0.2l-2.4-2.4l-1.8-1.8c-0.2-0.2-0.5-0.2-0.7,0s-0.2,0.5,0,0.7l1.8,1.8
	c0.4,0.4,0.7,1,0.7,1.6c0,0.6-0.2,1.2-0.7,1.6c-0.4,0.4-1,0.7-1.6,0.7c-0.6,0-1.2-0.2-1.6-0.7l-0.8-0.8c0.6-0.6,1-1.5,1-2.4
	c0-1.9-1.5-3.4-3.4-3.4c-0.2,0-0.4,0-0.6,0.1c0.4-1.2,0.1-2.5-0.8-3.4c-0.8-0.8-1.8-1.1-2.9-0.9c0.2-0.4,0.2-0.8,0.2-1.3
	c0-0.9-0.4-1.8-1-2.4c-0.7-0.7-1.8-1-2.7-0.9c0.6-1.3,0.4-2.8-0.7-3.9c-1.3-1.3-3.5-1.3-4.8,0L8,24.6l0,0c-0.9-2-1.3-4.3-1-6.5
	c0,0,0-0.1,0-0.1L17.8,7.2c0.3,0.1,0.6,0.1,0.8,0.3l9.4,3.3l-6.7,2.8c-0.1,0.1-0.3,0.1-0.3,0.2c0,0-0.1,0-0.1,0.1
	c-0.5,0.3-1,0.7-1.3,1.3L18,17.8c-0.5,0.8-0.6,1.7-0.3,2.6s0.8,1.6,1.6,2.1c1.6,0.9,3.7,0.4,4.6-1.2l1-1.8c0.1-0.1,0.2-0.2,0.4-0.3
	l3.6-1.4l9.7,9.5l7,7c0.4,0.4,0.7,1,0.7,1.6C46.2,36.6,45.8,37.3,45.1,37.8z M50.7,24c-1.2,2.6-3.3,5.6-5.8,8.1l-5.7-5.7l-9.9-9.7
	c-0.1-0.1-0.4-0.2-0.5-0.1l-3.9,1.6c-0.4,0.1-0.7,0.4-0.8,0.7l-1,1.8c-0.7,1.1-2.1,1.5-3.3,0.9c-0.6-0.3-1-0.8-1.1-1.5
	c-0.2-0.6-0.1-1.3,0.2-1.8l1.5-2.7c0.2-0.4,0.5-0.7,0.9-0.9c0,0,0.1-0.1,0.1-0.1c0.1,0,0.2-0.1,0.3-0.1l18.4-7.6
	c0.3-0.1,0.7-0.2,1-0.3l10.5,10.5c0,0,0,0,0,0C52,19.5,51.7,21.8,50.7,24z M45.6,1c0.3,0,0.5,0.1,0.7,0.3l11.3,11.3
	c0.4,0.4,0.4,1.1,0,1.5l-3.1,3.1c-0.4,0.4-1.1,0.4-1.5,0L41.8,5.9c-0.4-0.4-0.4-1.1,0-1.5l3.1-3.1C45.1,1.1,45.3,1,45.6,1z"/>
</svg>
