<svg id="a7cff480-00ce-4073-9d28-8e4d7a77b7f3" data-name="Layer 1" xmlns="http://www.w3.org/2000/svg" viewBox="0 0 67.76 63.72"><defs><style>.\33 9040770-4878-4b99-8cda-36d96336801a{fill:none;}</style></defs><title>untrusted</title><path class="39040770-4878-4b99-8cda-36d96336801a" d="M41.2,58.6c1.3-1.7.6-3.5-.8-4.6-.1,0-.1-.1-.1-.2L28.6,44.3a.68.68,0,0,1-.1-1h0a.68.68,0,0,1,1-.1L52,61.5a3.68,3.68,0,0,0,5.1-.7,3.62,3.62,0,0,0-.4-5.1L36,39a.68.68,0,0,1-.1-1h0a.68.68,0,0,1,1-.1L57.5,54.6a.1.1,0,0,1,.1.1h0L59.2,56a3.68,3.68,0,0,0,5.1-.7,3.62,3.62,0,0,0-.4-5.1L41,31.7a.68.68,0,0,1-.1-1h0a.68.68,0,0,1,1-.1L60.2,45.2c.1,0,.1.1.2.1a3.68,3.68,0,0,0,5.1-.7,3.54,3.54,0,0,0-.5-5.1L46.8,24.8a5.25,5.25,0,0,1-2.7-1.2c-3.3-2.4-6.4-5-7.6-6.1-2,2.3-9.4,9.9-18.5,3.5h0l-1.6-1.3a.71.71,0,0,1,.9-1.1l1.6,1.3a10.4,10.4,0,0,0,11.9.6,16.08,16.08,0,0,0,5-4.5.55.55,0,0,1,.5-.3.73.73,0,0,1,.6.2s3.9,3.3,8.1,6.5a3.15,3.15,0,0,0,3.2.7c1.5-.7,2.4-2.9,2.6-4.1.2-1.8-2.1-3.9-10.1-9.3C34.9,5.8,31,3.5,28.6,2.8a.1.1,0,0,1-.1-.1C20-.2,11.4,2.2,5.9,9.1a19.63,19.63,0,0,0-4.3,15A20.73,20.73,0,0,0,9.4,37.7L36.1,59.3A3.68,3.68,0,0,0,41.2,58.6Z" transform="translate(-0.01 -0.03)"/><path d="M42.3,59.6a4.38,4.38,0,0,0,1-3.2l7.8,6.3a5.23,5.23,0,0,0,8.3-5,5.14,5.14,0,0,0,6.2-1.5,5.08,5.08,0,0,0-.7-7.2l-1.8-1.4a5.14,5.14,0,0,0,3.5-1.9,5.08,5.08,0,0,0-.7-7.2l-17-14h0c2.2-1,3.3-3.8,3.5-5.3.3-2.8-2.4-5.1-10.8-10.7-5.8-3.9-9.7-6.1-12.2-7h-.1C20.1-1.9,10.7.7,4.8,8.2A21.59,21.59,0,0,0,8.5,38.9L35.2,60.5A5.09,5.09,0,0,0,42.3,59.6ZM9.4,37.7A20.73,20.73,0,0,1,1.6,24.1a20,20,0,0,1,4.3-15C11.4,2.2,20-.2,28.5,2.7a.1.1,0,0,1,.1.1c2.4.8,6.3,3,12.1,6.9,8,5.4,10.3,7.5,10.1,9.3-.1,1.3-1.1,3.5-2.6,4.1a3.15,3.15,0,0,1-3.2-.7c-4.2-3.1-8.1-6.4-8.1-6.5a1.42,1.42,0,0,0-.6-.2.55.55,0,0,0-.5.3,17.55,17.55,0,0,1-5,4.5,10.4,10.4,0,0,1-11.9-.6l-1.6-1.3a.71.71,0,0,0-.9,1.1L18,21h0c9.1,6.4,16.6-1.2,18.5-3.5,1.2,1.1,4.3,3.6,7.6,6.1a6.25,6.25,0,0,0,2.7,1.2L65,39.6a3.72,3.72,0,0,1,.5,5.1,3.67,3.67,0,0,1-5.1.7c-.1-.1-.1-.1-.2-.1L42,30.6a.67.67,0,0,0-1,.1h0a.67.67,0,0,0,.1,1L64.1,50a3.62,3.62,0,0,1,.4,5.1,3.68,3.68,0,0,1-5.1.7l-1.6-1.3h0a.1.1,0,0,1-.1-.1L37,37.8a.67.67,0,0,0-1,.1h0a.67.67,0,0,0,.1,1L56.7,55.6a3.62,3.62,0,0,1,.4,5.1,3.68,3.68,0,0,1-5.1.7L29.5,43.2a.67.67,0,0,0-1,.1h0a.67.67,0,0,0,.1,1l11.7,9.5c0,.1.1.1.1.2,1.4,1.1,2.2,3,.8,4.6a3.67,3.67,0,0,1-5.1.7Z" transform="translate(-0.01 -0.03)"/></svg>