<?xml version="1.0" encoding="utf-8"?>
<!-- Generator: Adobe Illustrator 21.0.2, SVG Export Plug-In . SVG Version: 6.00 Build 0)  -->
<svg version="1.1" id="Layer_1" xmlns="http://www.w3.org/2000/svg" xmlns:xlink="http://www.w3.org/1999/xlink" x="0px" y="0px"
	 viewBox="0 0 59.9 57.8" style="enable-background:new 0 0 59.9 57.8;" xml:space="preserve">
<style type="text/css">
	.st0{fill:#0C1519;}
	.st1{fill:#4B49C6;}
	.st2{fill:#FCFCFC;}
</style>
<rect class="st0" width="59.9" height="57.8"/>
<path class="st1" d="M32.4,26.7l-15.2,9.6c-0.1,0.1-0.3,0.1-0.4,0.1c0,0-0.1,0-0.1,0L1.2,34.6l15.3,9.7L34.1,33l3-7.4L32.4,26.7z"/>
<polygon class="st1" points="17.4,45.5 22.2,57.8 32.9,35.6 "/>
<polygon class="st1" points="21.1,1.6 20.3,29.7 27.1,0 "/>
<polygon class="st1" points="30.6,26 18.3,19.2 0,33 16.6,34.8 "/>
<path class="st1" d="M59.9,19.3l-0.4-1.6l-2.9-1.5c0,0,0,0-0.1,0l-7.1-3.7l-29.1,6.2l11.8,6.5L59.9,19.3z"/>
<rect x="19.5" y="14.7" class="st0" width="0.7" height="2.1"/>
<line class="st2" x1="23" y1="18.1" x2="20.6" y2="18.6"/>
<polyline class="st0" points="20.5,18.6 20.5,16.5 23.7,16.5 23.7,17.9 "/>
<polyline class="st0" points="22.6,19.8 20.4,18.6 19.9,20 22.9,21.7 "/>
</svg>
