<?xml version="1.0" encoding="utf-8"?>
<!-- Generator: Adobe Illustrator 21.0.2, SVG Export Plug-In . SVG Version: 6.00 Build 0)  -->
<svg version="1.1" id="Layer_1" xmlns="http://www.w3.org/2000/svg" xmlns:xlink="http://www.w3.org/1999/xlink" x="0px" y="0px"
	 viewBox="0 0 59.9 57.8" style="enable-background:new 0 0 59.9 57.8;" xml:space="preserve">
<style type="text/css">
	.st0{fill:none;}
</style>
<path d="M32.4,26.7l-15.2,9.6c-0.1,0.1-0.3,0.1-0.4,0.1h-0.1L1.2,34.6l15.3,9.7L34.1,33l3-7.4L32.4,26.7z"/>
<polygon points="17.4,45.5 22.2,57.8 32.9,35.6 "/>
<polygon points="30.6,26 18.3,19.2 0,33 16.6,34.8 "/>
<path d="M59.9,19.3l-0.4-1.6l-2.9-1.5c0,0,0,0-0.1,0l-7.1-3.7l-29.1,6.2l11.8,6.5L59.9,19.3z"/>
<line class="st0" x1="23" y1="18.1" x2="20.6" y2="18.6"/>
<polygon points="23.1,16.5 20.3,16.5 20.9,1.6 26.9,0 "/>
</svg>
