<svg id="22a76693-d3d8-46a5-b022-1700359ba0dd" data-name="Layer 1" xmlns="http://www.w3.org/2000/svg" viewBox="0 0 59.9 57.8"><defs><style>.\30 36c5f7e-a726-496b-b542-a3aa99381c0d{fill:#fff;}.a4f1189b-2a3a-48d4-a62f-1d6d8632454e{fill:none;}</style></defs><title>wrabbit-icon-white</title><path class="036c5f7e-a726-496b-b542-a3aa99381c0d" d="M32.4,26.7,17.2,36.3a.6.6,0,0,1-.4.1h-.1L1.2,34.6l15.3,9.7L34.1,33l3-7.4Z"/><polygon class="036c5f7e-a726-496b-b542-a3aa99381c0d" points="17.4 45.5 22.2 57.8 32.9 35.6 17.4 45.5"/><polygon class="036c5f7e-a726-496b-b542-a3aa99381c0d" points="30.6 26 18.3 19.2 0 33 16.6 34.8 30.6 26"/><path class="036c5f7e-a726-496b-b542-a3aa99381c0d" d="M59.9,19.3l-.4-1.6-2.9-1.5h-.1l-7.1-3.7L20.3,18.7l11.8,6.5Z"/><line class="a4f1189b-2a3a-48d4-a62f-1d6d8632454e" x1="23" y1="18.1" x2="20.6" y2="18.6"/><polygon class="036c5f7e-a726-496b-b542-a3aa99381c0d" points="23.1 16.5 20.3 16.5 20.9 1.6 26.9 0 23.1 16.5"/></svg>