<?xml version="1.0" encoding="utf-8"?>
<!-- Generator: Adobe Illustrator 21.0.2, SVG Export Plug-In . SVG Version: 6.00 Build 0)  -->
<svg version="1.1"
	 id="Layer_1" xmlns:cc="http://creativecommons.org/ns#" xmlns:dc="http://purl.org/dc/elements/1.1/" xmlns:inkscape="http://www.inkscape.org/namespaces/inkscape" xmlns:rdf="http://www.w3.org/1999/02/22-rdf-syntax-ns#" xmlns:sodipodi="http://sodipodi.sourceforge.net/DTD/sodipodi-0.dtd" xmlns:svg="http://www.w3.org/2000/svg"
	 xmlns="http://www.w3.org/2000/svg" xmlns:xlink="http://www.w3.org/1999/xlink" x="0px" y="0px" viewBox="0 0 100 100"
	 style="enable-background:new 0 0 100 100;" xml:space="preserve">
<style type="text/css">
	.st0{fill:#FFFFFF;}
</style>
<g transform="translate(0,-952.36218)" stroke-width="2" stroke="white">
	<path class="st0" d="M84.3,956.1c-5.3,5.3-48,47.6-53.3,52.8c-0.1,0.1-0.2,0.2-0.2,0.4l-6.8,17.4c-0.3,0.8,0.6,1.7,1.4,1.4
		l17.5-6.7c0.1-0.1,0.3-0.1,0.4-0.2c5.1-5.1,48-47.6,53.3-52.8c0.3-0.3,0.4-0.7,0.3-1.1c-1.7-5-6.4-9.6-11.4-11.3
		C84.9,955.6,84.7,955.9,84.3,956.1z M86,958.4c3.4,1.6,6.6,4.8,8.2,8.2c0.2,0.4,0.1,0.9-0.2,1.2c-1.4,1.4-4.8,4.8-7,7
		c-0.4,0.4-1.1,0.4-1.5,0l-7.7-7.6c-0.4-0.4-0.4-1.1,0-1.5c2.2-2.2,5.6-5.6,7-7C85.1,958.3,85.6,958.2,86,958.4z M76.2,968.6
		l7.7,7.6c0.4,0.4,0.4,1.1,0,1.5c-12.7,12.6-33.3,33-39.9,39.5c-0.4,0.4-1.1,0.4-1.5,0l-7.7-7.6c-0.4-0.4-0.4-1.1,0-1.5
		c6.7-6.6,27.2-27,39.9-39.5C75.2,968.2,75.8,968.2,76.2,968.6z M3,967.9v80.5c0,0.6,0.5,1.1,1.1,1.1h80.2c0.6,0,1.1-0.5,1.1-1.1
		v-65c0-0.9-1.1-1.4-1.8-0.8l0,0c-0.2,0.2-0.3,0.5-0.3,0.8v62.8c0,0.6-0.5,1.1-1.1,1.1H6.2c-0.6,0-1.1-0.5-1.1-1.1v-75.2
		c0-0.6,0.5-1.1,1.1-1.1h62c0.3,0,0.6-0.1,0.8-0.3c0,0,0,0,0,0c0.7-0.7,0.2-1.8-0.8-1.8L3,967.9L3,967.9z M33.8,1011.5l6.8,6.7
		c0.5,0.5,0.4,1.5-0.4,1.7l-11.1,4.3c-0.9,0.3-1.7-0.5-1.4-1.4l4.3-11C32.3,1011.2,33.3,1011,33.8,1011.5z"/>
</g>
</svg>
