<svg id="9e44b8e5-5cc6-4bb4-98cd-f1ed7db63f0e" data-name="Layer 1" xmlns="http://www.w3.org/2000/svg" viewBox="0 0 95.94 95.7"><defs><style>.\39 0dce651-a709-400c-a8d4-a2859e9ce1d7{fill:#fff;stroke:#fff;stroke-width:2px;}</style></defs><title>write</title><path class="90dce651-a709-400c-a8d4-a2859e9ce1d7" d="M84.3,3.74C79,9,36.3,51.34,31,56.54a.52.52,0,0,0-.2.4L24,74.34a1.13,1.13,0,0,0,1.4,1.4L42.9,69c.1-.1.3-.1.4-.2,5.1-5.1,48-47.6,53.3-52.8a1.13,1.13,0,0,0,.3-1.1A19.28,19.28,0,0,0,85.5,3.64C84.9,3.24,84.7,3.54,84.3,3.74ZM86,6a18.09,18.09,0,0,1,8.2,8.2,1.06,1.06,0,0,1-.2,1.2l-7,7a1.09,1.09,0,0,1-1.5,0l-7.7-7.6a1.09,1.09,0,0,1,0-1.5l7-7A1,1,0,0,1,86,6Zm-9.8,10.2,7.7,7.6a1.09,1.09,0,0,1,0,1.5c-12.7,12.6-33.3,33-39.9,39.5a1.09,1.09,0,0,1-1.5,0l-7.7-7.6a1.09,1.09,0,0,1,0-1.5c6.7-6.6,27.2-27,39.9-39.5A1.09,1.09,0,0,1,76.2,16.24ZM3,15.54V96a1.11,1.11,0,0,0,1.1,1.1H84.3A1.11,1.11,0,0,0,85.4,96V31a1.09,1.09,0,0,0-1.8-.8h0a1.14,1.14,0,0,0-.3.8v62.8a1.11,1.11,0,0,1-1.1,1.1H6.2a1.11,1.11,0,0,1-1.1-1.1V18.64a1.11,1.11,0,0,1,1.1-1.1h62a1.14,1.14,0,0,0,.8-.3h0a1,1,0,0,0-.8-1.8L3,15.54Zm30.8,43.6,6.8,6.7a1,1,0,0,1-.4,1.7l-11.1,4.3a1.09,1.09,0,0,1-1.4-1.4l4.3-11A1.2,1.2,0,0,1,33.8,59.14Z" transform="translate(-2 -2.44)"/></svg>